PathFileType	4	(X/Y/Z)	C:/Users/opensim2020/Desktop/walking_exp_matlab/subject03_walking10_straight_04.trc																																																																																																																																					
DataRate	CameraRate	NumFrames	NumMarkers	Units	OrigDataRate	OrigDataStartFrame	OrigNumFrames																																																																																																																																	
100	100	4	45	mm	100	3863	317																																																																																																																																	
Frame#	Time	LFHD			RFHD			LBHD			RBHD			C7			T10			CLAV			STRN			RBAK			LSHO			LUPA			LELB			LFRM			LWRA			LWRB			LFIN			RSHO			RUPA			RELB			RFRM			RWRA			RWRB			RFIN			LASI			RASI			LPSI			RPSI			LTHI			LKNE			LTIB			LANK			LHEE			LTOE			RTHI			RKNE			RTIB			RANK			RHEE			RTOE			*39			*40			*41			*42			*43			*44		
		X1	Y1	Z1	X2	Y2	Z2	X3	Y3	Z3	X4	Y4	Z4	X5	Y5	Z5	X6	Y6	Z6	X7	Y7	Z7	X8	Y8	Z8	X9	Y9	Z9	X10	Y10	Z10	X11	Y11	Z11	X12	Y12	Z12	X13	Y13	Z13	X14	Y14	Z14	X15	Y15	Z15	X16	Y16	Z16	X17	Y17	Z17	X18	Y18	Z18	X19	Y19	Z19	X20	Y20	Z20	X21	Y21	Z21	X22	Y22	Z22	X23	Y23	Z23	X24	Y24	Z24	X25	Y25	Z25	X26	Y26	Z26	X27	Y27	Z27	X28	Y28	Z28	X29	Y29	Z29	X30	Y30	Z30	X31	Y31	Z31	X32	Y32	Z32	X33	Y33	Z33	X34	Y34	Z34	X35	Y35	Z35	X36	Y36	Z36	X37	Y37	Z37	X38	Y38	Z38	X39	Y39	Z39	X40	Y40	Z40	X41	Y41	Z41	X42	Y42	Z42	X43	Y43	Z43	X44	Y44	Z44	X45	Y45	Z45
																																																																																																																																								
40	0.39	-738.30878	1622.62561	905.19537	-743.7121	1631.08276	1037.95105	-861.33777	1564.8728	907.02893	-861.24292	1573.47314	1037.79797	-883.151	1417.90649	971.86145	-923.62689	1106.0752	979.37854	-761.03943	1339.84973	973.13324	-720.6322	1174.11292	971.76068	-936.42816	1247.53918	1076.05444	-804.32544	1372.52881	816.52374	-817.44733	1174.00708	746.6308	-814.47015	1050.66907	735.6037	-791.33514	922.3924	736.55475	-776.48407	804.05267	767.50616	-797.27533	809.79559	715.11182	-788.44812	724.74847	727.03455	-798.42078	1364.7572	1132.25549	-779.2193	1141.07385	1199.9248	-754.31519	1030.15784	1207.08435	-726.03503	896.18335	1202.7644	-693.54034	804.0929	1160.71606	-717.04846	797.67755	1208.54321	-684.57367	732.24677	1198.89453	-752.5285	945.10748	863.81903	-757.6546	934.57288	1101.39221	-917.03998	967.91699	911.50513	-917.88507	965.07526	1061.21326	-794.91461	644.48096	823.96381	-773.34357	467.49551	865.15796	-809.82385	275.64374	865.72876	-808.07794	65.4752	908.43127	-845.72821	30.65984	944.94067	-653.30688	30.36483	931.31177	-803.58362	634.29669	1148.41907	-775.8559	456.29614	1127.81006	-920.12952	330.74823	1125.63806	-1079.94971	188.38905	1080.16223	-1128.29626	196.56802	1022.6109	-1021.24298	57.90763	1073.97253	-828.16425	1676.55774	950.62482	NaN	NaN	NaN	NaN	NaN	NaN	NaN	NaN	NaN	NaN	NaN	NaN	NaN	NaN	NaN
41	0.4	-731.65057	1622.39697	904.97559	-737.31726	1631.21716	1037.62708	-854.755	1564.64856	906.7851	-854.83698	1573.46448	1037.60339	-876.71539	1418.05176	971.51343	-917.15118	1106.09277	978.70483	-754.80188	1339.69543	973.10791	-714.4538	1173.95667	971.6745	-930.69312	1247.4834	1075.05566	-797.52631	1372.25684	816.32568	-808.47522	1173.93384	745.61304	-803.86707	1050.76794	733.90015	-779.5376	922.73413	734.54706	-763.91425	804.49493	765.0459	-784.04559	810.28772	712.44489	-773.57214	725.58337	723.64429	-792.71179	1364.29211	1132.18677	-774.45813	1140.45984	1199.81848	-749.79865	1029.42212	1207.16138	-723.03247	895.03583	1203.44788	-691.91583	802.15643	1161.89709	-715.16522	796.55603	1209.96851	-683.2818	730.82404	1201.03223	-745.55994	945.38434	863.10803	-751.1532	934.81476	1100.92688	-910.0719	967.83453	910.59937	-911.37543	964.73138	1060.26404	-788.70685	644.47662	823.66364	-768.99298	467.24509	865.19763	-807.26953	275.65012	865.54767	-807.75403	65.56677	908.59491	-845.34949	30.41327	945.53162	-653.17291	30.31588	931.39471	-792.87421	634.70746	1147.70642	-761.08539	457.41528	1127.47534	-904.61774	331.44965	1125.39636	-1064.16797	188.74805	1079.87793	-1112.92737	195.69153	1022.10583	-1003.22931	59.79724	1075.49048	-821.76013	1676.45593	950.1217	NaN	NaN	NaN	NaN	NaN	NaN	NaN	NaN	NaN	NaN	NaN	NaN	NaN	NaN	NaN
42	0.41	-725.12891	1622.34009	904.68781	-730.84863	1631.33789	1037.40417	-848.22742	1564.50391	906.55847	-848.34894	1573.51245	1037.38208	-870.38013	1418.16077	971.1438	-910.7359	1106.12573	977.99103	-748.61975	1339.68921	973.08307	-708.20532	1173.94727	971.55585	-924.9884	1247.41724	1074.17932	-790.83521	1372.13647	816.22852	-799.59326	1174.12683	744.74249	-793.39368	1051.13611	732.39917	-767.71863	923.36536	732.66107	-751.2511	805.2381	762.69543	-770.74738	811.0705	709.85083	-758.52411	726.77301	720.27124	-787.09021	1364.07544	1132.1665	-769.75031	1140.06055	1199.77075	-745.38098	1028.93384	1207.30127	-720.07764	894.22552	1204.27307	-690.12079	800.63251	1163.26257	-713.25623	795.72235	1211.46179	-682.07251	729.85278	1203.29517	-738.7337	945.60223	862.43719	-743.77344	935.26154	1100.18176	-903.29773	967.70959	909.67896	-904.89734	964.6637	1059.34326	-782.55029	644.42963	823.47015	-764.31689	467.18839	864.75781	-804.57959	275.70163	865.3277	-807.45135	65.62526	908.72339	-845.53253	30.76786	945.3277	-653.09485	30.26709	931.46686	-782.15216	635.18732	1146.83118	-746.53754	458.67386	1127.03748	-888.95306	331.83658	1125.07056	-1047.75391	188.22343	1079.68018	-1096.9469	193.81172	1021.91522	-984.06427	60.83184	1076.49792	-815.26257	1676.19507	949.62701	NaN	NaN	NaN	NaN	NaN	NaN	NaN	NaN	NaN	NaN	NaN	NaN	NaN	NaN	NaN
43	0.42	-718.64575	1622.24268	904.55927	-724.3645	1631.41956	1037.18396	-841.82562	1564.51331	906.45233	-841.88513	1573.60522	1037.28711	-864.08899	1418.18604	970.8349	-904.46185	1106.13721	977.34393	-742.45355	1339.73425	973.1767	-702.09454	1174.00684	971.51294	-919.29858	1247.43188	1073.43774	-784.21124	1372.20752	816.17883	-790.71832	1174.52124	743.94122	-782.93646	1051.77979	731.01978	-755.84619	924.28247	730.90485	-738.34644	806.31378	760.26892	-757.42438	812.11237	707.34448	-743.2854	728.39325	717.02069	-781.62335	1364.0426	1132.13989	-765.14923	1139.96375	1199.78687	-741.0589	1028.71021	1207.58264	-717.04553	893.71667	1205.22766	-688.1582	799.49097	1164.84302	-711.29346	795.19263	1213.09204	-680.80719	729.04395	1205.65137	-731.88397	945.78217	861.70734	-737.60394	935.80609	1099.76074	-896.47083	967.55365	908.74872	-898.38684	964.70282	1058.36719	-776.55084	644.35211	823.22125	-760.03412	466.88449	864.78674	-801.85425	275.66406	865.17743	-807.16101	65.72588	908.78668	-845.51074	30.85951	945.34204	-652.98779	30.22914	931.50018	-771.23865	635.71527	1145.66565	-732.24731	459.96503	1126.40662	-873.15649	331.82336	1124.60193	-1030.54346	186.57027	1079.57825	-1080.30005	190.81009	1022.02014	-963.77014	61.25314	1077.14746	-808.82593	1676.36389	949.46204	NaN	NaN	NaN	NaN	NaN	NaN	NaN	NaN	NaN	NaN	NaN	NaN	NaN	NaN	NaN
